<svg xmlns="http://www.w3.org/2000/svg" viewBox="0 0 24 24">
  <path fill="#1967D2" d="M3,3V21H21V3H3M12,9.75C12.41,9.75 12.75,10.09 12.75,10.5C12.75,10.91 12.41,11.25 12,11.25C11.59,11.25 11.25,10.91 11.25,10.5C11.25,10.09 11.59,9.75 12,9.75M12,17.25C9.97,17.25 8.1,16.36 6.9,15L8.1,13.8C9,14.84 10.4,15.5 12,15.5C13.6,15.5 15,14.84 15.9,13.8L17.1,15C15.9,16.36 14,17.25 12,17.25M12,6.75C14.03,6.75 15.9,7.64 17.1,9L15.9,10.2C15,9.16 13.6,8.5 12,8.5C10.4,8.5 9,9.16 8.1,10.2L6.9,9C8.1,7.64 9.97,6.75 12,6.75Z"/>
</svg>
